# xmcd
#
# Track frame offsets: 
#        182
#        16170
#        32457
#        47470
#        58482
#        73920
#        89445
#        105670
#        129495
#        144857
#        164507
#        181145
#        202282
#        226507
#        249682
#
# Disc length: 3513 seconds
#
# Revision: 0
# Processed by: cddbd v1.5.2PL0 Copyright (c) Steve Scherf et al.
# Submitted via: ExactAudioCopy v0.99pb4
#
DISCID=cc0db70f
DTITLE=Harold Melvin and The Blue Notes - Wake Up Everybody
DYEAR=1975
DGENRE=Soul
TTITLE0=If You Don't Know Me By Now
TTITLE1=The Love I Lost (Part 1)
TTITLE2=Satisfaction Guaranteed
TTITLE3=Where Are All My Friends
TTITLE4=Bad Luck (Part 1)
TTITLE5=Hope That We Can Be Together Soon
TTITLE6=Wake Up Everybody (Part 1)
TTITLE7=You Know How To Make Me Feel So Good
TTITLE8=Be For Real
TTITLE9=Nobody Could Take Your Place
TTITLE10=Keep On Lovin' You
TTITLE11=To Be True
TTITLE12=Im Searching For Love
TTITLE13=To Be Free To Be Who We Are
TTITLE14=Do It Any Way You Wanna
EXTD=
EXTT0=
EXTT1=
EXTT2=
EXTT3=
EXTT4=
EXTT5=
EXTT6=
EXTT7=
EXTT8=
EXTT9=
EXTT10=
EXTT11=
EXTT12=
EXTT13=
EXTT14=
PLAYORDER=
